<svg width="30" height="29" viewBox="0 0 30 29" fill="none" xmlns="http://www.w3.org/2000/svg">
<path d="M5.02002 28.143H13.69C15.3299 28.1424 16.9348 27.6683 18.3117 26.7776C19.6887 25.8869 20.7791 24.6175 21.452 23.122L29.689 4.789C29.8494 4.4664 29.9431 4.11479 29.9645 3.75517C29.9858 3.39555 29.9345 3.03531 29.8135 2.69598C29.6925 2.35665 29.5044 2.04519 29.2603 1.78023C29.0162 1.51526 28.7212 1.30223 28.3929 1.15386C28.0647 1.00549 27.7098 0.924828 27.3497 0.916698C26.9895 0.908568 26.6314 0.973138 26.2967 1.10654C25.9621 1.23995 25.6578 1.43946 25.402 1.69314C25.1462 1.94682 24.9442 2.24947 24.808 2.583L19.627 14.112C19.1126 15.2568 18.2789 16.229 17.2258 16.9118C16.1728 17.5947 14.9451 17.9593 13.69 17.962H5.02002C3.68229 17.9807 2.4057 18.5253 1.46635 19.4779C0.526986 20.4305 0.000366211 21.7146 0.000366211 23.0525C0.000366211 24.3904 0.526986 25.6744 1.46635 26.6271C2.4057 27.5797 3.68229 28.1242 5.02002 28.143ZM2.87002 20.887C3.43773 20.3088 4.20981 19.9766 5.02002 19.962H5.90002L5.03102 26.143H5.02002C4.41593 26.1321 3.82827 25.9444 3.3297 25.6032C2.83113 25.2619 2.44351 24.782 2.21477 24.2228C1.98602 23.6636 1.92617 23.0496 2.04263 22.4567C2.15908 21.8639 2.44673 21.3181 2.87002 20.887ZM11.96 19.962L11.091 26.143H9.071L9.941 19.962H11.96ZM14.123 26.128C13.979 26.138 13.834 26.143 13.69 26.143H12.1L12.969 19.962H13.693C14.133 19.962 14.571 19.926 15.003 19.858L14.123 26.128ZM15.153 25.976L16.046 19.626C17.9755 19.0683 19.6463 17.8477 20.764 16.179L22.064 16.879L19.627 22.303C19.2151 23.2186 18.597 24.0266 17.821 24.6637C17.0451 25.3009 16.1313 25.75 15.153 25.976ZM6.04302 26.143L6.91102 19.962H8.93102L8.06102 26.143H6.04302ZM22.64 23.542H28.11C28.6 23.542 28.99 23.932 28.99 24.422V26.262C28.99 26.742 28.6 27.142 28.11 27.142H22.64C22.16 27.142 21.76 26.752 21.76 26.262V24.422C21.76 23.942 22.15 23.542 22.64 23.542Z" fill="#E20505"/>
</svg>
