<svg version="1.0" xmlns="http://www.w3.org/2000/svg"
 width="200" height="170" viewBox="0 0 746.000000 521.000000"
 preserveAspectRatio="xMidYMid meet">

<g transform="translate(0.000000,521.000000) scale(0.100000,-0.100000)"
fill="#000000" stroke="none">
<path d="M3905 4995 c-131 -35 -173 -54 -218 -94 -42 -37 -51 -55 -73 -139
-19 -72 -18 -132 5 -192 14 -37 17 -62 12 -102 l-6 -53 -28 27 c-26 26 -27 26
-27 6 0 -12 10 -32 22 -45 21 -23 21 -23 1 -23 -11 0 -32 10 -47 21 -31 25
-43 20 -26 -11 6 -12 10 -23 8 -26 -7 -7 -82 18 -218 72 -176 69 -249 88 -314
79 -63 -8 -199 -52 -291 -95 -38 -17 -101 -43 -138 -56 -38 -13 -99 -45 -135
-72 -37 -27 -102 -70 -145 -96 -76 -47 -94 -63 -84 -72 7 -7 150 79 228 137
36 27 100 61 145 78 43 16 130 50 192 76 62 26 149 54 193 63 74 16 83 16 145
-1 37 -9 113 -36 169 -58 l103 -41 -10 -32 c-27 -77 -122 -202 -317 -416
l-105 -115 148 145 c164 160 254 266 293 344 14 28 27 52 28 54 8 9 147 -41
152 -54 3 -8 -6 -39 -20 -67 -28 -59 -39 -111 -39 -197 -1 -33 -4 -60 -7 -60
-8 1 -37 41 -67 93 -13 23 -24 38 -24 32 0 -5 16 -36 35 -68 19 -32 33 -62 30
-66 -2 -5 -31 -16 -64 -25 -156 -44 -283 -112 -382 -207 l-64 -61 70 56 c113
91 258 156 433 195 l43 9 41 -81 c43 -87 88 -208 88 -239 0 -28 22 -31 76 -8
l49 20 -59 -56 c-76 -72 -42 -55 41 21 40 36 92 70 149 96 47 22 87 39 89 37
1 -2 28 -47 59 -100 81 -139 106 -199 116 -276 l9 -67 -4 74 c-4 79 -29 141
-124 307 l-40 70 48 36 c26 20 69 65 94 99 25 35 55 75 65 88 l19 24 44 -20
c24 -12 60 -24 79 -28 118 -24 226 -136 295 -306 44 -108 43 -125 -7 -220 -55
-105 -66 -173 -104 -665 -3 -44 -9 -86 -13 -93 -6 -9 -24 -7 -75 9 l-67 22 6
74 7 74 -77 80 -78 80 55 58 c88 92 120 172 40 100 -36 -33 -68 -47 -132 -62
-16 -3 -45 -31 -78 -76 -34 -43 -61 -70 -73 -70 -10 0 -19 -4 -19 -10 0 -20
-194 -101 -374 -156 -45 -13 -64 -22 -42 -19 51 8 286 86 357 118 l57 26 6
-35 c8 -41 -1 -101 -20 -131 -24 -39 -107 -72 -217 -89 -192 -30 -576 -3 -634
43 -11 10 -62 54 -112 97 -88 76 -90 79 -69 90 66 33 57 130 -22 236 -40 53
-50 76 -50 106 0 47 -2 51 -65 96 -27 20 -63 50 -79 67 l-29 31 29 22 c16 12
40 34 54 48 42 44 72 58 160 74 50 10 92 24 105 35 11 10 31 22 45 26 41 12
70 34 70 54 0 10 18 45 40 77 22 33 40 64 40 71 0 25 -32 -1 -65 -53 -34 -53
-69 -82 -79 -65 -4 5 -3 16 0 25 9 25 -22 10 -86 -39 -95 -72 -94 -72 -145
-23 l-45 43 32 50 c31 47 33 55 31 134 -1 47 3 93 9 105 10 19 9 20 -5 8 -18
-15 -37 -92 -38 -155 0 -36 -2 -40 -12 -23 -7 10 -32 45 -55 77 -24 33 -52 76
-63 97 -16 33 -18 34 -18 12 -1 -31 28 -93 63 -139 14 -19 26 -40 26 -47 0 -7
-24 -27 -54 -44 -53 -30 -57 -31 -168 -28 l-113 3 92 39 c50 21 106 51 125 68
33 29 33 29 2 8 -33 -23 -235 -100 -269 -103 -15 -2 -25 10 -40 40 -15 33 -24
42 -38 37 -10 -3 -24 -1 -31 5 -29 25 -258 -83 -330 -155 -23 -23 -51 -64 -61
-90 l-18 -48 -24 29 c-23 27 -24 33 -21 141 3 109 4 114 33 144 39 40 115 75
195 90 36 6 76 14 90 17 l25 6 -25 7 c-55 17 -116 10 -176 -19 -32 -16 -71
-31 -86 -35 -45 -10 -72 -82 -76 -200 -5 -127 7 -169 56 -200 20 -13 43 -36
51 -52 7 -16 17 -36 22 -44 4 -8 19 -38 34 -67 14 -28 41 -62 59 -77 26 -19
32 -31 29 -49 -11 -55 77 -147 140 -147 l30 0 -22 -24 c-12 -13 -40 -31 -62
-41 -46 -21 -48 -36 -12 -87 l26 -39 -23 -49 c-26 -56 -45 -71 -113 -90 -44
-12 -58 -24 -151 -134 -57 -67 -165 -209 -241 -316 -190 -267 -195 -276 -206
-315 -5 -19 -21 -48 -34 -64 -14 -16 -25 -36 -25 -45 0 -10 -25 -28 -65 -47
-78 -36 -130 -93 -183 -198 -23 -47 -65 -105 -112 -156 -110 -120 -214 -316
-341 -642 l-8 -23 -37 25 c-42 28 -52 24 -70 -28 -9 -26 -26 -40 -105 -80
-161 -83 -176 -93 -197 -139 -13 -27 -19 -53 -15 -71 4 -22 -1 -35 -25 -60
-22 -24 -31 -45 -35 -80 l-5 -47 47 0 c25 0 66 5 91 11 25 6 86 12 135 13 69
2 102 8 140 25 28 12 94 35 147 51 121 35 167 61 271 156 78 71 121 133 110
160 -6 16 50 52 93 60 35 6 74 63 74 107 0 19 17 40 67 84 99 86 141 132 165
186 20 43 30 52 84 77 43 19 66 36 75 56 8 16 29 38 47 49 74 45 118 83 137
118 l20 37 60 -5 c87 -8 116 3 140 52 11 23 31 53 44 67 40 42 174 125 230
142 40 12 66 29 112 76 64 64 62 64 141 36 42 -14 55 -50 38 -108 -6 -19 -10
-52 -10 -73 0 -47 -17 -81 -67 -133 -21 -22 -49 -55 -63 -74 -14 -18 -32 -41
-41 -49 -29 -28 -150 -281 -144 -301 14 -43 -254 -372 -383 -471 -30 -23 -79
-52 -110 -66 -31 -13 -67 -29 -79 -35 -26 -13 -93 -108 -93 -132 0 -10 9 -31
20 -46 l20 -28 -45 -64 c-85 -120 -84 -130 18 -136 137 -9 326 48 477 143 71
45 93 55 104 46 11 -10 17 -5 27 26 14 45 100 139 134 147 14 4 43 30 66 59
22 28 118 131 213 227 185 188 316 338 316 362 0 8 17 35 38 59 28 32 41 56
45 89 4 30 13 51 29 63 43 34 53 43 136 131 45 49 113 110 150 136 129 91 281
273 282 338 0 6 5 12 10 12 6 0 73 -48 150 -107 l140 -106 1 -121 c0 -67 0
-143 -1 -169 -2 -58 18 -93 59 -102 16 -3 37 -15 47 -26 12 -13 30 -19 59 -19
29 0 47 -6 60 -20 12 -13 31 -20 54 -20 26 0 41 -7 56 -25 12 -16 34 -28 56
-31 32 -5 41 -2 69 25 18 17 37 31 41 31 5 0 9 20 9 44 l0 43 -42 6 c-32 4
-51 15 -75 41 -18 20 -33 32 -33 27 0 -12 48 -61 84 -87 38 -27 30 -60 -12
-50 -112 28 -107 23 -85 83 6 16 -33 53 -57 53 -13 0 -28 -13 -41 -35 -12 -19
-22 -35 -23 -35 -2 0 -1 14 2 30 5 36 -12 60 -44 60 -23 0 -32 -7 -59 -45 -11
-16 -11 -10 1 33 18 60 9 82 -32 82 -25 0 -64 -32 -64 -52 0 -9 -3 -9 -11 -1
-14 14 3 47 49 90 34 33 36 44 16 97 -3 9 -2 16 4 16 17 0 72 -95 72 -124 0
-25 1 -26 23 -12 36 23 67 5 68 -41 l1 -38 9 33 c12 40 39 43 67 7 11 -14 22
-20 24 -14 2 6 17 -8 33 -30 36 -53 75 -81 113 -81 31 0 28 2 773 -552 198
-148 372 -274 388 -282 15 -8 34 -22 42 -32 7 -9 88 -72 179 -139 91 -68 206
-153 255 -190 l90 -67 250 6 c256 6 458 25 555 52 107 31 153 119 93 176 -61
58 -92 59 -330 14 -98 -19 -222 -40 -276 -46 -122 -16 -278 -9 -332 14 -109
46 -488 320 -1544 1116 -82 62 -86 67 -89 108 -2 24 4 67 12 96 21 72 20 83
-10 140 -14 27 -33 72 -41 100 -8 28 -29 78 -48 111 -18 33 -40 84 -50 112 -9
29 -22 53 -29 53 -7 0 -34 -18 -60 -41 -32 -28 -53 -40 -66 -36 -16 4 -18 2
-10 -13 6 -10 10 -30 10 -43 0 -45 -87 -108 -147 -106 -23 1 -20 3 14 11 48
10 113 65 113 95 0 10 -6 28 -14 38 -14 19 -16 19 -84 1 -38 -10 -78 -16 -88
-13 -15 4 -13 5 6 6 14 1 39 8 55 16 l30 15 -45 -6 c-25 -3 -62 -10 -82 -15
-33 -9 -38 -14 -38 -39 0 -28 -2 -30 -41 -30 -36 0 -54 10 -135 71 -81 61 -94
75 -94 100 0 21 5 29 18 29 39 0 92 21 92 37 0 9 -17 30 -37 48 l-36 31 68 75
c37 41 71 75 75 77 14 5 22 -56 24 -181 1 -115 3 -125 30 -170 21 -36 33 -46
45 -42 33 14 204 55 226 55 12 0 28 -7 35 -15 17 -20 27 -19 34 3 4 10 25 27
48 38 35 15 44 26 50 54 4 19 5 54 2 76 -4 30 -1 49 11 68 12 18 15 36 11 58
-6 28 0 37 58 98 74 76 67 51 92 355 17 225 39 378 58 415 7 14 28 54 46 90
l33 64 -28 85 c-52 153 -147 282 -243 330 -31 15 -81 36 -110 46 -29 9 -65 27
-79 39 -24 21 -25 26 -15 55 6 17 21 44 32 58 11 14 18 28 15 31 -2 2 -30 -6
-61 -18 -47 -20 -54 -25 -37 -31 15 -6 22 -19 25 -49 3 -36 0 -45 -25 -66 -43
-36 -69 -30 -155 32 -42 31 -79 59 -82 61 -2 2 8 15 22 28 16 14 29 40 33 65
4 22 9 40 13 40 3 0 17 -10 30 -22 l24 -23 -21 42 c-11 23 -21 45 -21 48 0 4
28 5 63 3 34 -1 96 -1 137 2 65 3 57 4 -57 9 -73 3 -137 11 -142 16 -7 7 -5
34 7 84 15 65 20 75 47 87 24 10 36 9 66 -3 33 -13 40 -13 69 2 22 12 43 14
71 10 21 -4 39 -9 39 -12 0 -3 -9 -18 -21 -35 l-21 -29 21 -51 c12 -28 19 -53
17 -56 -3 -2 1 -11 9 -19 31 -30 18 -38 -57 -34 -20 1 -39 -3 -43 -9 -4 -6 6
-10 24 -10 26 0 31 -4 31 -25 0 -14 5 -25 10 -25 6 0 10 9 10 20 0 12 10 25
25 32 28 13 30 40 5 91 -13 26 -11 34 18 92 25 51 28 64 16 69 -22 9 -17 26
13 37 32 12 94 65 86 73 -4 3 3 6 14 6 18 0 21 -9 26 -82 13 -157 13 -156 -35
-178 -24 -11 -38 -20 -31 -20 7 0 29 8 49 17 l37 18 -7 120 c-4 65 -10 123
-12 127 -3 4 -13 8 -23 8 -21 0 -31 35 -31 108 0 51 6 44 -167 182 -113 90
-194 132 -263 137 -26 2 -82 -7 -135 -22z m205 -15 c10 -7 -9 -10 -65 -11
l-80 -2 95 -7 c52 -4 111 -14 130 -23 41 -17 165 -123 165 -140 0 -14 -59 -44
-123 -63 l-47 -14 45 6 c25 3 71 17 103 32 54 23 59 24 74 9 16 -15 14 -18
-20 -32 -85 -36 -173 -48 -382 -55 l-210 -7 182 -1 c205 -2 309 9 399 43 70
26 68 27 79 -48 6 -39 4 -47 -14 -56 -32 -18 -114 -31 -276 -46 l-150 -14 141
4 c78 3 175 12 218 21 42 10 79 14 82 11 4 -4 -1 -18 -10 -31 -21 -33 -64 -44
-222 -56 -71 -6 -136 -13 -145 -15 -22 -7 -39 -48 -39 -93 0 -21 -5 -43 -12
-50 -7 -7 -13 -39 -14 -72 -3 -79 -19 -124 -55 -154 -17 -15 -29 -34 -29 -49
0 -36 -44 -30 -48 6 -3 20 -13 31 -46 45 -45 20 -104 75 -142 132 -31 47 -49
191 -29 231 13 23 12 29 -9 60 -54 81 -59 159 -16 255 39 89 86 122 233 163
104 29 210 39 237 21z m-421 -754 c25 -39 83 -94 129 -122 23 -13 30 -23 26
-36 -3 -10 0 -18 6 -18 6 0 20 -21 30 -46 11 -25 29 -57 40 -71 32 -41 26 -46
-39 -40 -74 8 -161 40 -189 70 -23 25 -72 148 -72 181 0 30 30 116 40 116 5 0
18 -15 29 -34z m329 -286 c12 0 13 -3 4 -12 -9 -9 -8 -16 5 -30 23 -26 45 -22
78 12 17 18 39 30 54 30 25 0 25 0 -9 -35 -36 -37 -98 -61 -134 -50 -22 6 -61
49 -73 81 -5 15 -2 16 27 11 18 -4 40 -7 48 -7z m-1514 -283 c12 -13 43 -28
67 -34 24 -6 66 -19 93 -29 46 -16 50 -16 78 0 42 25 44 15 6 -34 -51 -67 -62
-70 -100 -32 -19 17 -48 34 -66 38 -23 5 -38 17 -57 50 -31 53 -54 61 -103 37
-47 -23 -72 -72 -72 -139 0 -43 -4 -54 -31 -80 -17 -16 -49 -50 -70 -76 l-39
-46 57 -46 c32 -25 67 -46 78 -46 11 0 61 28 110 61 58 39 94 58 103 52 6 -4
53 -71 102 -147 65 -100 87 -142 80 -151 -15 -19 -137 -76 -200 -95 -30 -9
-55 -20 -54 -26 0 -5 11 -33 24 -62 18 -40 27 -51 39 -46 35 14 51 16 51 5 0
-14 -59 -41 -76 -34 -13 5 -42 68 -64 138 -7 22 -37 80 -66 128 -30 49 -54 93
-54 99 0 38 -110 131 -190 162 -57 22 -80 43 -80 72 0 18 26 41 123 107 76 53
134 100 151 125 47 69 118 91 160 49z m351 -37 c14 -22 25 -44 25 -49 0 -12
-161 -123 -168 -116 -3 3 10 22 30 43 52 55 68 83 68 118 0 27 6 44 17 44 1 0
14 -18 28 -40z m-341 -128 c-67 -49 -128 -131 -111 -148 3 -3 38 11 78 31 41
21 70 33 64 27 -28 -28 -150 -112 -162 -112 -19 0 -93 38 -93 48 0 9 156 129
210 161 51 30 60 26 14 -7z m294 -247 c37 -53 50 -56 59 -15 8 43 23 37 23
-10 0 -28 10 -55 36 -96 51 -79 74 -133 74 -176 0 -38 -20 -68 -46 -68 -18 0
-18 10 2 38 20 29 12 66 -37 164 -31 61 -42 75 -57 71 -14 -3 -31 11 -65 58
-42 56 -50 79 -28 79 4 0 21 -20 39 -45z m-408 -318 c65 -128 82 -153 129
-191 91 -75 200 -119 381 -156 86 -17 110 -26 134 -50 l29 -29 -38 -7 c-52
-10 -199 2 -263 21 -30 9 -56 14 -58 12 -8 -7 107 -35 194 -48 46 -6 106 -9
133 -6 42 5 53 3 71 -15 l21 -21 -24 -10 c-13 -5 -69 -9 -124 -10 -125 -1
-203 24 -425 134 -193 96 -224 121 -246 197 -32 113 -47 147 -74 177 -15 17
-33 40 -39 52 -10 20 -8 24 21 36 18 8 44 26 58 40 14 13 30 24 35 23 6 -1 44
-68 85 -149z m679 -209 c79 -66 371 -297 806 -637 88 -69 236 -188 328 -265
l168 -140 -23 -17 c-12 -10 -27 -15 -33 -11 -5 3 -154 112 -330 242 -324 239
-599 442 -933 688 -100 74 -180 137 -178 140 7 7 100 71 104 71 2 1 43 -32 91
-71z m1384 -96 c16 -17 15 -21 -19 -57 l-36 -40 -14 25 c-18 33 -17 55 2 74
21 21 47 20 67 -2z m-1023 -17 c134 -16 274 -19 383 -6 60 6 67 5 67 -11 0
-24 -22 -34 -115 -52 -125 -23 -244 -30 -294 -16 -64 17 -58 7 12 -19 128 -49
325 -175 306 -195 -4 -4 -29 -10 -56 -15 l-50 -7 -22 38 c-17 29 -39 47 -99
77 -42 22 -124 79 -182 126 -133 110 -130 108 -100 101 14 -3 81 -13 150 -21z
m355 -143 l-60 -57 -85 42 c-47 23 -83 43 -80 44 18 5 276 34 280 32 2 -2 -22
-30 -55 -61z m-687 -233 c93 -37 159 -76 231 -137 85 -73 114 -137 74 -168
-17 -13 -17 -14 1 -7 17 6 19 2 13 -37 -5 -37 -39 -92 -50 -79 -3 2 -25 47
-50 99 -89 187 -145 231 -288 228 l-84 -1 90 -6 c50 -4 99 -12 111 -18 60 -34
118 -125 184 -291 l33 -83 -28 -55 c-18 -36 -38 -59 -54 -66 -42 -16 -247 -4
-311 19 -30 11 -64 23 -75 27 -11 4 -3 -2 17 -13 54 -31 192 -61 276 -61 39 0
72 -4 72 -9 0 -5 -32 -39 -71 -75 -60 -55 -73 -73 -84 -117 -8 -28 -16 -54
-20 -57 -10 -10 -96 37 -240 133 -182 120 -181 119 -166 192 6 31 11 71 11 89
0 39 12 47 97 69 l58 15 -68 -5 -68 -6 3 48 3 48 95 11 95 11 -92 4 -92 4 12
24 c16 32 50 40 211 50 l131 8 -147 2 c-82 0 -148 3 -148 5 0 9 83 152 97 168
18 20 110 68 131 68 7 0 48 -14 90 -31z m591 -251 c-39 -57 -99 -120 -198
-210 -129 -118 -135 -116 -71 15 27 57 60 104 108 155 l68 72 58 0 57 0 -22
-32z m-2199 -184 c25 -25 73 -64 108 -86 36 -24 77 -62 99 -92 20 -28 58 -74
85 -102 l49 -52 -31 -26 c-39 -32 -75 -42 -95 -26 -19 15 -105 150 -155 242
-22 40 -40 69 -40 64 0 -19 93 -226 129 -286 48 -80 43 -99 -41 -141 l-59 -30
-47 33 c-26 18 -67 50 -92 73 l-45 40 29 -40 c16 -22 49 -61 74 -87 37 -38 43
-50 33 -62 -8 -9 -8 -15 -1 -18 17 -5 -109 -147 -137 -154 -39 -10 -126 14
-216 59 -72 37 -86 48 -114 96 -35 58 -50 125 -38 168 7 24 9 25 12 8 17 -90
75 -184 136 -219 52 -31 156 -56 222 -54 29 0 37 3 20 5 -229 27 -307 87 -337
262 -10 56 -9 72 1 85 21 25 27 20 41 -28 19 -68 86 -164 139 -197 24 -16 50
-29 55 -29 6 1 -5 9 -25 20 -49 26 -96 81 -130 154 -29 61 -37 110 -20 121 5
3 15 -12 22 -32 31 -99 102 -190 174 -224 32 -16 35 -16 15 -2 -45 31 -90 84
-117 137 -33 64 -44 200 -20 257 23 55 140 184 179 196 67 22 91 16 138 -33z
m1276 -305 c125 -97 260 -193 284 -201 15 -5 2 -58 -16 -65 -28 -10 -298 148
-387 227 -65 58 -70 70 -47 108 11 18 24 32 28 32 5 0 67 -45 138 -101z m-118
-62 c94 -78 219 -168 295 -212 49 -28 57 -49 26 -68 -13 -8 -41 2 -122 41
-108 53 -223 137 -290 210 -37 42 -37 43 -22 72 9 17 18 30 21 30 2 0 44 -33
92 -73z m-193 -385 c34 -31 97 -75 139 -97 42 -22 76 -44 76 -50 0 -5 -14 -33
-30 -62 -27 -48 -33 -52 -82 -62 -66 -14 -143 -1 -206 34 -61 34 -64 25 -4
-13 63 -41 124 -62 178 -62 24 0 44 -4 44 -8 0 -5 -15 -26 -33 -47 -31 -35
-38 -39 -94 -43 -81 -6 -115 12 -208 109 -75 79 -76 80 -58 102 10 12 60 75
111 140 52 64 96 117 99 117 3 0 33 -26 68 -58z m-1605 17 c0 -33 37 -95 76
-127 47 -39 107 -55 209 -56 l83 -1 -69 -71 c-38 -40 -69 -77 -69 -83 0 -22
-83 -54 -145 -54 -72 -1 -94 10 -162 76 -58 56 -57 54 -43 93 l11 27 47 -45
c26 -25 61 -53 78 -61 39 -20 139 -30 184 -19 29 7 22 9 -40 9 -109 0 -170 36
-228 134 l-22 37 36 86 c34 80 54 101 54 55z m-127 -310 c112 -97 145 -113
234 -113 60 1 71 -2 62 -13 -7 -8 -33 -13 -71 -13 -57 0 -59 -1 -52 -22 11
-36 10 -53 -3 -51 -7 2 -13 -2 -13 -7 0 -17 -28 -11 -39 8 -9 15 -10 14 -11
-6 0 -38 -22 -20 -41 34 -21 60 -24 47 -4 -19 13 -42 13 -49 -1 -54 -20 -8
-22 -5 -40 63 -8 32 -20 64 -26 69 -7 7 -8 4 -4 -10 16 -57 25 -116 20 -129
-9 -24 -23 -19 -30 12 -14 64 -25 98 -34 112 -14 22 -12 1 5 -56 18 -59 19
-87 3 -82 -6 2 -20 35 -30 74 -11 38 -23 73 -29 79 -14 14 -11 -17 5 -56 20
-50 29 -99 18 -99 -6 0 -34 47 -63 105 -29 58 -56 108 -61 111 -10 6 0 -18 56
-139 42 -90 43 -97 17 -97 -15 0 -23 13 -36 58 -9 31 -32 86 -50 120 -39 74
-37 96 8 86 21 -4 27 -3 22 5 -5 8 2 10 22 6 l28 -7 -25 21 c-25 20 -25 21 -3
21 12 0 25 -5 28 -10 4 -6 11 -8 16 -4 6 3 3 11 -7 18 -23 17 -1 31 26 16 20
-11 30 3 10 15 -13 8 -13 25 1 25 5 0 47 -32 92 -71z m1515 -34 c102 -96 122
-123 101 -136 -8 -4 -19 -3 -26 3 -8 6 -16 9 -18 6 -11 -11 9 -39 36 -54 16
-8 29 -18 29 -22 -1 -4 -21 -27 -45 -52 l-45 -45 0 45 c-1 26 -9 60 -21 80
-14 25 -18 28 -12 10 12 -42 9 -75 -6 -75 -9 0 -21 24 -31 63 -10 35 -23 69
-29 75 -6 6 -2 -15 9 -47 21 -62 26 -116 11 -116 -4 0 -18 27 -30 60 -29 79
-46 88 -19 10 19 -59 19 -98 -2 -85 -5 3 -10 14 -10 23 0 21 -49 127 -55 120
-3 -3 4 -25 15 -49 11 -24 20 -55 20 -69 0 -21 -3 -19 -20 15 -11 23 -33 56
-50 75 -29 34 -29 34 5 -24 30 -51 47 -116 30 -116 -2 0 -13 17 -24 39 -24 46
-69 101 -83 101 -6 0 6 -18 26 -40 38 -42 55 -85 39 -101 -6 -6 -21 9 -42 40
-17 28 -60 75 -94 106 -48 42 -57 55 -41 55 11 0 35 11 54 25 19 14 40 25 48
25 7 0 10 5 7 10 -4 6 10 17 30 26 20 8 33 19 30 23 -6 11 61 55 73 47 4 -2
14 0 22 5 13 8 12 11 -3 20 -23 13 -12 32 11 20 10 -5 59 -49 110 -96z m-1862
-332 c-8 -8 -115 -16 -131 -9 -15 5 -15 8 -1 27 8 12 27 30 42 40 27 17 27 17
61 -18 18 -20 31 -38 29 -40z"/>
<path d="M3928 4953 c7 -3 16 -2 19 1 4 3 -2 6 -13 5 -11 0 -14 -3 -6 -6z"/>
<path d="M3845 4789 c-4 -6 0 -30 10 -55 16 -43 18 -44 58 -42 l42 1 -38 4
c-29 3 -40 10 -47 29 -19 50 -14 57 35 52 51 -6 61 6 14 16 -45 9 -67 7 -74
-5z"/>
<path d="M3728 4779 c-21 -12 -22 -28 -6 -64 16 -36 29 -31 16 6 -8 25 -8 33
3 40 24 15 47 10 54 -12 4 -11 9 -19 11 -16 3 2 0 16 -5 31 -11 28 -41 34 -73
15z"/>
<path d="M3783 4693 c9 -2 23 -2 30 0 6 3 -1 5 -18 5 -16 0 -22 -2 -12 -5z"/>
<path d="M4070 4653 c0 -4 10 -22 23 -40 22 -32 23 -33 100 -33 42 0 77 4 77
9 0 18 -65 49 -124 60 -70 13 -76 13 -76 4z"/>
<path d="M3750 4531 c-5 -11 -10 -56 -10 -100 0 -96 -5 -111 -37 -111 -13 0
-21 -4 -18 -10 3 -5 15 -10 25 -10 12 0 27 -14 39 -37 24 -48 56 -78 103 -98
47 -19 72 -19 92 1 29 29 11 134 -23 134 -23 0 -31 9 -24 26 4 11 8 11 26 0
12 -8 32 -17 44 -20 20 -6 21 -4 16 27 -4 26 0 42 16 64 12 16 24 45 27 64 7
44 -7 52 -77 43 -61 -8 -54 -24 12 -24 27 0 49 -4 49 -10 0 -5 -11 -10 -25
-10 -14 0 -25 -4 -25 -10 0 -5 9 -10 20 -10 11 0 20 -4 20 -10 0 -5 -9 -10
-20 -10 -11 0 -20 -6 -20 -13 0 -7 -8 -13 -18 -14 -9 -1 -24 -3 -32 -5 -11 -2
-16 8 -18 37 -5 74 -11 85 -55 105 -53 25 -74 25 -87 1z m84 -47 c33 -33 8
-67 -46 -62 -40 4 -48 28 -19 57 25 25 44 26 65 5z m-54 -119 c7 -8 30 -20 51
-27 37 -10 39 -14 39 -50 0 -45 -3 -44 -74 18 -25 23 -46 49 -46 58 0 20 14
21 30 1z m17 -89 c64 -53 103 -60 103 -19 0 24 2 25 14 13 41 -44 19 -108 -33
-95 -39 10 -88 43 -111 75 -37 51 -21 67 27 26z"/>
<path d="M2213 3480 c-49 -33 -98 -69 -109 -81 -19 -21 -18 -21 9 -45 16 -13
35 -24 43 -24 8 0 52 33 98 73 79 68 83 74 74 100 -6 15 -13 29 -18 32 -4 2
-48 -22 -97 -55z"/>
<path d="M2497 3286 c-20 -12 -40 -25 -42 -28 -8 -8 91 -70 152 -94 29 -12 53
-20 53 -19 0 13 -105 165 -114 165 -6 0 -28 -11 -49 -24z"/>
<path d="M2382 3220 c-38 -17 -41 -21 -30 -39 9 -15 20 -18 47 -15 117 15 118
17 68 52 -40 26 -32 26 -85 2z"/>
<path d="M2445 3153 c-11 -2 -32 -9 -47 -15 -24 -9 -26 -12 -16 -34 10 -22 17
-24 77 -24 82 0 132 -13 170 -45 34 -29 53 -31 75 -9 22 22 21 27 -21 68 -56
54 -152 78 -238 59z"/>
<path d="M2433 3062 c-13 -2 -23 -6 -23 -8 0 -3 14 -25 30 -50 24 -34 37 -44
58 -43 49 1 117 23 117 38 0 30 -121 72 -182 63z"/>
<path d="M3398 2533 c7 -3 16 -2 19 1 4 3 -2 6 -13 5 -11 0 -14 -3 -6 -6z"/>
<path d="M2918 2113 c7 -3 16 -2 19 1 4 3 -2 6 -13 5 -11 0 -14 -3 -6 -6z"/>
<path d="M1308 1193 c7 -3 16 -2 19 1 4 3 -2 6 -13 5 -11 0 -14 -3 -6 -6z"/>
<path d="M2993 4403 c-7 -3 -13 -18 -13 -34 0 -22 5 -29 20 -29 15 0 20 7 20
29 0 32 -7 41 -27 34z"/>
<path d="M4190 4398 c-56 -12 -68 -23 -41 -38 33 -17 95 -9 99 14 6 28 -9 34
-58 24z"/>
<path d="M2832 4288 c-27 -27 -2 -75 32 -62 21 8 21 60 0 68 -20 8 -18 8 -32
-6z"/>
<path d="M4395 4290 c-13 -5 -14 -9 -5 -9 8 0 24 4 35 9 13 5 14 9 5 9 -8 0
-24 -4 -35 -9z"/>
<path d="M2170 4045 c-13 -16 -11 -17 60 -40 41 -14 69 -32 109 -73 57 -59 53
-36 -6 29 -59 65 -143 109 -163 84z"/>
<path d="M4192 3863 c-33 -42 -58 -81 -55 -86 3 -5 31 -7 63 -4 54 6 59 5 85
-23 l29 -30 -18 -132 c-9 -73 -26 -168 -37 -212 -11 -43 -18 -83 -16 -89 8
-25 87 346 87 410 0 4 17 -9 38 -28 20 -19 53 -48 72 -64 34 -29 34 -29 -5 15
-22 25 -54 60 -70 79 l-30 34 35 -7 c19 -3 69 -22 110 -41 78 -36 76 -30 -6
19 l-48 28 34 15 35 14 -35 21 c-19 11 -52 42 -72 69 -36 46 -67 68 -114 83
-17 5 -31 -7 -82 -71z"/>
<path d="M3614 3504 c-18 -14 -18 -15 4 -4 12 6 22 13 22 15 0 8 -5 6 -26 -11z"/>
<path d="M4151 3264 c0 -11 3 -14 6 -6 3 7 2 16 -1 19 -3 4 -6 -2 -5 -13z"/>
<path d="M4231 3254 c0 -11 3 -14 6 -6 3 7 2 16 -1 19 -3 4 -6 -2 -5 -13z"/>
<path d="M4221 3214 c0 -11 3 -14 6 -6 3 7 2 16 -1 19 -3 4 -6 -2 -5 -13z"/>
<path d="M4211 3174 c0 -11 3 -14 6 -6 3 7 2 16 -1 19 -3 4 -6 -2 -5 -13z"/>
<path d="M3548 2743 c7 -3 16 -2 19 1 4 3 -2 6 -13 5 -11 0 -14 -3 -6 -6z"/>
<path d="M3493 2733 c9 -2 23 -2 30 0 6 3 -1 5 -18 5 -16 0 -22 -2 -12 -5z"/>
<path d="M3423 2723 c9 -2 25 -2 35 0 9 3 1 5 -18 5 -19 0 -27 -2 -17 -5z"/>
<path d="M3323 2713 c15 -2 37 -2 50 0 12 2 0 4 -28 4 -27 0 -38 -2 -22 -4z"/>
</g>
</svg>
