<svg width="32" height="32" viewBox="0 0 32 32" fill="none" xmlns="http://www.w3.org/2000/svg">
<path d="M6.02002 30.143H14.69C16.3299 30.1424 17.9348 29.6683 19.3117 28.7776C20.6887 27.8869 21.7791 26.6175 22.452 25.122L30.689 6.789C30.8494 6.4664 30.9431 6.11479 30.9645 5.75517C30.9858 5.39555 30.9345 5.03531 30.8135 4.69598C30.6925 4.35665 30.5044 4.04519 30.2603 3.78023C30.0162 3.51526 29.7212 3.30223 29.3929 3.15386C29.0647 3.00549 28.7098 2.92483 28.3497 2.9167C27.9895 2.90857 27.6314 2.97314 27.2967 3.10654C26.9621 3.23995 26.6578 3.43946 26.402 3.69314C26.1462 3.94682 25.9442 4.24947 25.808 4.583L20.627 16.112C20.1126 17.2568 19.2789 18.229 18.2258 18.9118C17.1728 19.5947 15.9451 19.9593 14.69 19.962H6.02002C4.68229 19.9807 3.4057 20.5253 2.46635 21.4779C1.52699 22.4305 1.00037 23.7146 1.00037 25.0525C1.00037 26.3904 1.52699 27.6744 2.46635 28.6271C3.4057 29.5797 4.68229 30.1242 6.02002 30.143ZM3.87002 22.887C4.43773 22.3088 5.20981 21.9766 6.02002 21.962H6.90002L6.03102 28.143H6.02002C5.41593 28.1321 4.82827 27.9444 4.3297 27.6032C3.83113 27.2619 3.44351 26.782 3.21477 26.2228C2.98602 25.6636 2.92617 25.0496 3.04263 24.4567C3.15908 23.8639 3.44673 23.3181 3.87002 22.887ZM12.96 21.962L12.091 28.143H10.071L10.941 21.962H12.96ZM15.123 28.128C14.979 28.138 14.834 28.143 14.69 28.143H13.1L13.969 21.962H14.693C15.133 21.962 15.571 21.926 16.003 21.858L15.123 28.128ZM16.153 27.976L17.046 21.626C18.9755 21.0683 20.6463 19.8477 21.764 18.179L23.064 18.879L20.627 24.303C20.2151 25.2186 19.597 26.0266 18.821 26.6637C18.0451 27.3009 17.1313 27.75 16.153 27.976ZM7.04302 28.143L7.91102 21.962H9.93102L9.06102 28.143H7.04302ZM23.64 25.542H29.11C29.6 25.542 29.99 25.932 29.99 26.422V28.262C29.99 28.742 29.6 29.142 29.11 29.142H23.64C23.16 29.142 22.76 28.752 22.76 28.262V26.422C22.76 25.942 23.15 25.542 23.64 25.542Z" fill="#F24E1E"/>
</svg>
